<?xml version="1.0" standalone="no"?>
<!DOCTYPE svg PUBLIC "-//W3C//DTD SVG 20010904//EN"
 "http://www.w3.org/TR/2001/REC-SVG-20010904/DTD/svg10.dtd">
<svg version="1.0" xmlns="http://www.w3.org/2000/svg"
 width="256.000000pt" height="256.000000pt" viewBox="0 0 256.000000 256.000000"
 preserveAspectRatio="xMidYMid meet">
<metadata>
Created by potrace 1.15, written by Peter Selinger 2001-2017
</metadata>
<g transform="translate(0.000000,256.000000) scale(0.100000,-0.100000)"
fill="#000000" stroke="none">
<path d="M917 2539 c-3 -10 -13 -19 -22 -19 -11 0 -15 5 -11 15 4 12 2 13 -12
6 -32 -17 -64 -59 -76 -102 l-13 -43 -6 32 c-4 18 -15 35 -24 39 -10 4 -21 11
-24 15 -11 16 -75 -31 -97 -71 -12 -21 -22 -56 -22 -77 -1 -34 -2 -36 -11 -19
-6 11 -22 30 -36 41 -23 20 -28 20 -53 7 -38 -18 -70 -86 -70 -149 -1 -36 -3
-45 -10 -33 -5 9 -20 24 -34 32 -55 36 -106 -29 -106 -135 0 -48 -3 -59 -12
-50 -17 17 -31 15 -24 -3 3 -9 0 -15 -9 -15 -19 0 -30 21 -15 30 7 4 8 10 3
13 -5 3 -22 -5 -39 -18 -28 -22 -29 -25 -29 -113 0 -57 -4 -88 -10 -85 -5 3
-4 0 3 -8 19 -20 14 -29 -10 -20 -13 4 -25 18 -28 30 l-5 23 -28 -26 c-24 -22
-27 -32 -27 -85 0 -70 12 -106 48 -143 29 -31 17 -36 -29 -12 -19 10 -29 21
-25 30 7 18 -13 18 -37 0 -13 -10 -17 -28 -17 -86 0 -81 18 -124 59 -138 31
-11 81 -51 65 -52 -22 0 -83 30 -104 52 l-20 22 0 -106 c0 -116 3 -121 60
-132 36 -6 106 -43 98 -52 -8 -7 -120 35 -140 53 -17 15 -18 12 -18 -77 0 -81
3 -97 21 -116 l21 -22 -21 -11 c-16 -9 -21 -21 -21 -56 0 -39 5 -50 42 -88 24
-25 50 -47 58 -49 12 -5 12 -8 -4 -21 -14 -10 -20 -27 -20 -52 0 -31 7 -44 42
-76 23 -22 55 -42 72 -45 32 -7 39 -18 15 -28 -25 -9 -19 -78 8 -104 28 -26
88 -52 121 -52 25 0 25 0 8 -29 -35 -61 22 -119 127 -129 l46 -4 0 -51 0 -51
45 -14 c25 -7 68 -11 96 -9 l52 3 -5 -35 c-6 -55 6 -65 85 -69 90 -5 130 9
195 67 51 46 53 47 90 36 l38 -11 -40 -36 c-23 -20 -41 -41 -41 -47 0 -7 86
-10 250 -10 171 0 250 3 250 11 0 6 -19 27 -41 48 l-42 38 42 7 c39 6 44 4 87
-35 25 -23 61 -48 79 -56 40 -16 142 -19 180 -4 24 9 27 14 23 53 l-3 43 50
-3 c28 -2 70 2 95 9 48 15 63 40 49 89 -7 26 -5 27 46 32 52 5 113 30 127 51
13 19 9 60 -8 84 -14 21 -14 22 11 22 34 0 94 26 122 52 27 26 33 95 8 104
-21 8 -19 24 3 24 27 0 91 43 112 76 26 38 25 69 -2 96 -17 17 -19 23 -7 26 8
3 33 24 57 49 37 38 42 49 42 88 0 35 -5 47 -21 56 l-21 11 21 22 c18 19 21
35 21 116 0 89 -1 92 -18 77 -24 -22 -132 -59 -132 -46 0 12 78 48 106 49 38
0 44 19 44 130 0 101 -1 104 -18 83 -18 -23 -91 -57 -101 -47 -8 7 26 33 60
45 41 15 59 58 59 139 0 78 -12 100 -55 99 -11 0 -14 -3 -7 -6 20 -8 14 -22
-18 -38 -45 -23 -57 -18 -28 13 36 37 48 72 48 142 0 67 -7 90 -26 90 -8 0
-14 5 -14 10 0 6 -4 10 -10 10 -5 0 -10 -9 -10 -20 0 -10 -9 -24 -19 -30 -29
-15 -33 -12 -20 11 6 12 7 19 2 16 -4 -3 -8 35 -8 85 0 87 -1 91 -29 113 l-29
23 -33 -20 -34 -20 0 61 c0 69 -21 131 -44 131 -9 0 -16 5 -16 10 0 6 -8 10
-17 10 -15 0 -15 -2 -4 -9 9 -6 11 -15 6 -27 -8 -18 -8 -18 -12 -1 -6 24 -29
21 -47 -5 -15 -22 -16 -20 -16 30 0 67 -28 125 -72 147 -18 9 -27 10 -20 3 14
-14 16 -38 2 -38 -5 0 -10 7 -10 16 0 27 -34 11 -51 -24 l-17 -32 -4 53 c-3
34 -13 65 -26 85 -24 33 -82 68 -91 54 -3 -5 -12 -11 -20 -14 -8 -2 -20 -20
-27 -39 -11 -30 -13 -31 -13 -9 -1 35 -33 83 -75 115 -31 24 -41 26 -69 19
-28 -8 -33 -15 -39 -54 -4 -25 -5 -53 -2 -64 6 -17 2 -18 -32 -11 -22 4 -43
10 -49 14 -33 26 -384 19 -475 -8 -54 -17 -59 -15 -54 22 7 45 -8 89 -33 98
-16 6 -22 3 -26 -12z m487 -379 c111 -42 188 -125 202 -219 9 -61 -9 -167 -36
-203 -16 -22 -19 -36 -14 -67 5 -31 2 -45 -14 -66 -16 -19 -19 -35 -15 -63 10
-72 55 -268 79 -344 21 -65 30 -81 55 -93 46 -24 69 -52 69 -83 0 -20 9 -35
30 -50 50 -38 58 -65 59 -206 l1 -128 -31 -29 c-104 -97 -536 -136 -832 -74
-85 18 -191 66 -206 93 -6 11 -10 73 -10 143 1 135 8 160 59 202 19 16 30 35
30 51 0 29 24 57 70 81 17 9 35 27 41 41 17 47 58 198 73 274 28 141 29 160
13 178 -22 25 -29 59 -18 80 7 14 2 33 -20 78 -24 49 -30 73 -30 130 -1 75 9
110 47 166 75 109 260 159 398 108z"/>
</g>
</svg>
